<svg xmlns="http://www.w3.org/2000/svg" version="1.1" xmlns:xlink="http://www.w3.org/1999/xlink" xmlns:svgjs="http://svgjs.dev/svgjs" width="2000" height="1275" viewBox="0 0 2000 1275"><g transform="matrix(1,0,0,1,-2.2455587211588863,-2.056451612903288)"><svg viewBox="0 0 389 248" data-background-color="#fafafa" preserveAspectRatio="xMidYMid meet" height="1275" width="2000" xmlns="http://www.w3.org/2000/svg" xmlns:xlink="http://www.w3.org/1999/xlink"><g id="tight-bounds" transform="matrix(1,0,0,1,0.4367611712654025,0.4000000000000057)"><svg viewBox="0 0 388.1264776574692 247.2" height="247.2" width="388.1264776574692"><g><svg viewBox="0 0 388.1264776574692 247.2" height="247.2" width="388.1264776574692"><g><svg viewBox="0 0 397.4976 253.1685220576938" height="247.2" width="388.1264776574692"><g><rect width="397.4976" height="3.8952530545704898" x="0" y="155.58391233976548" fill="#130912" opacity="1" stroke-width="0" stroke="transparent" fill-opacity="1" class="rect-yte-0" data-fill-palette-color="primary" rx="1%" id="yte-0" data-palette-color="#130912"></rect></g><g transform="matrix(1,0,0,1,0.9887999999999693,169.6761629193896)"><svg viewBox="0 0 395.52000000000004 83.49235913830418" height="83.49235913830418" width="395.52000000000004"><g id="textblocktransform"><svg viewBox="0 0 395.52000000000004 83.49235913830418" height="83.49235913830418" width="395.52000000000004" id="textblock"><g><svg viewBox="0 0 395.52000000000004 43.19370679380215" height="43.19370679380215" width="395.52000000000004"><g transform="matrix(1,0,0,1,0,0)"><svg width="395.52000000000004" viewBox="1 -35.95 335.57 36.650000000000006" height="43.19370679380215" data-palette-color="#130912"><path d="M13.85-34.85L17.1-34.85 17.1 0 13.85 0 13.85-34.85ZM1-35.05L29.95-35.05 29.95-33.55 1-33.55 1-35.05ZM26.5-33.7L29.95-33.7 29.95-29.65 29.45-29.7 29.45-30.55Q29.45-31.8 28.58-32.65 27.7-33.5 26.5-33.55L26.5-33.55 26.5-33.7ZM29.95-35.95L29.95-35.95 29.95-34.5 23.85-35.05Q24.95-35.05 26.18-35.2 27.4-35.35 28.45-35.55 29.5-35.75 29.95-35.95ZM13.85-3.65L14-3.65 14 0 10 0 10-0.5Q10-0.5 10.33-0.5 10.65-0.5 10.65-0.5L10.65-0.5Q11.95-0.5 12.88-1.43 13.8-2.35 13.85-3.65L13.85-3.65ZM16.95 0L16.95-3.65 17.1-3.65Q17.15-2.35 18.07-1.43 19-0.5 20.3-0.5L20.3-0.5Q20.3-0.5 20.63-0.5 20.95-0.5 20.95-0.5L20.95-0.5 20.95 0 16.95 0ZM1-33.7L4.45-33.7 4.45-33.55Q3.2-33.5 2.35-32.65 1.5-31.8 1.5-30.55L1.5-30.55 1.5-29.7 1-29.65 1-33.7ZM1-34.5L1-35.95Q1.5-35.75 2.53-35.55 3.55-35.35 4.8-35.2 6.05-35.05 7.1-35.05L7.1-35.05 1-34.5ZM58.8-30L62-30 62 0 58.8 0 58.8-30ZM37.15-30L40.35-30 40.35 0 37.15 0 37.15-30ZM39.8-15.55L59.3-15.55 59.3-14.05 39.8-14.05 39.8-15.55ZM37.15-3.2L37.3-3.2 37.3 0 33.65 0 33.65-0.5Q33.65-0.5 33.95-0.5 34.25-0.5 34.25-0.5L34.25-0.5Q35.45-0.5 36.27-1.3 37.1-2.1 37.15-3.2L37.15-3.2ZM40.2 0L40.2-3.2 40.35-3.2Q40.35-2.1 41.2-1.3 42.05-0.5 43.25-0.5L43.25-0.5Q43.25-0.5 43.55-0.5 43.85-0.5 43.85-0.5L43.85-0.5 43.85 0 40.2 0ZM40.35-26.8L40.2-26.8 40.2-30 43.85-30 43.85-29.5Q43.85-29.5 43.55-29.5 43.25-29.5 43.25-29.5L43.25-29.5Q42.05-29.5 41.2-28.73 40.35-27.95 40.35-26.8L40.35-26.8ZM37.3-30L37.3-26.8 37.15-26.8Q37.1-27.95 36.27-28.73 35.45-29.5 34.25-29.5L34.25-29.5Q34.25-29.5 33.95-29.5 33.65-29.5 33.65-29.5L33.65-29.5 33.65-30 37.3-30ZM58.8-3.2L58.95-3.2 58.95 0 55.3 0 55.3-0.5Q55.3-0.5 55.6-0.5 55.9-0.5 55.9-0.5L55.9-0.5Q57.1-0.5 57.92-1.3 58.75-2.1 58.8-3.2L58.8-3.2ZM61.85 0L61.85-3.2 62-3.2Q62.05-2.1 62.87-1.3 63.7-0.5 64.9-0.5L64.9-0.5Q64.9-0.5 65.2-0.5 65.5-0.5 65.5-0.5L65.5-0.5 65.5 0 61.85 0ZM62-26.8L61.85-26.8 61.85-30 65.5-30 65.5-29.5Q65.5-29.5 65.2-29.5 64.9-29.5 64.9-29.5L64.9-29.5Q63.7-29.5 62.87-28.73 62.05-27.95 62-26.8L62-26.8ZM58.95-30L58.95-26.8 58.8-26.8Q58.75-27.95 57.92-28.73 57.1-29.5 55.9-29.5L55.9-29.5Q55.9-29.5 55.6-29.5 55.3-29.5 55.3-29.5L55.3-29.5 55.3-30 58.95-30ZM74.55-30L77.75-30 77.75 0 74.55 0 74.55-30ZM77.65-1.55L91.2-1.55 91.1 0 77.65 0 77.65-1.55ZM77.65-15.75L88.85-15.75 88.85-14.25 77.65-14.25 77.65-15.75ZM77.65-30L91.15-30 91.15-28.45 77.65-28.45 77.65-30ZM93.5-7.15L94-7.15 91.25 0 83.65 0 85.35-1.55Q87.85-1.55 89.37-2.27 90.9-3 91.85-4.28 92.8-5.55 93.5-7.15L93.5-7.15ZM86.25-14.35L88.85-14.35 88.85-11.5 88.3-11.5 88.3-12.15Q88.3-13 87.8-13.63 87.3-14.25 86.25-14.25L86.25-14.25 86.25-14.35ZM88.3-18.5L88.85-18.5 88.85-15.65 86.25-15.65 86.25-15.75Q87.3-15.75 87.8-16.38 88.3-17 88.3-17.85L88.3-17.85 88.3-18.5ZM88.1-28.6L91.15-28.6 91.15-25.15 90.6-25.15 90.6-25.9Q90.6-26.95 89.92-27.7 89.25-28.45 88.1-28.45L88.1-28.45 88.1-28.6ZM91.15-30.8L91.15-30.8 91.15-29.5 85.45-30Q87-30 88.75-30.28 90.5-30.55 91.15-30.8ZM74.55-3.2L74.65-3.2 75.3 0 70.95 0 70.95-0.5Q70.95-0.5 71.3-0.5 71.65-0.5 71.65-0.5L71.65-0.5Q72.9-0.5 73.7-1.3 74.5-2.1 74.55-3.2L74.55-3.2ZM75.3-30L74.65-26.85 74.55-26.85Q74.5-28 73.7-28.75 72.9-29.5 71.65-29.5L71.65-29.5Q71.65-29.5 71.3-29.5 70.95-29.5 70.95-29.5L70.95-29.5 70.95-30 75.3-30ZM114.84-35L118.09-35 118.09 0 114.84 0 114.84-35ZM117.94-18L129.44-18 129.44-16.5 117.94-16.5 117.94-18ZM117.94-35L131.59-35 131.59-33.45 117.94-33.45 117.94-35ZM126.54-16.6L129.44-16.6 129.44-13.3 128.94-13.3 128.94-14.05Q128.94-15.05 128.24-15.78 127.54-16.5 126.54-16.5L126.54-16.5 126.54-16.6ZM128.94-21.2L129.44-21.2 129.44-17.9 126.54-17.9 126.54-18Q127.54-18.05 128.24-18.78 128.94-19.5 128.94-20.5L128.94-20.5 128.94-21.2ZM128.64-33.6L131.59-33.6 131.59-30.25 131.09-30.25 131.09-31Q131.09-32 130.37-32.73 129.64-33.45 128.64-33.45L128.64-33.45 128.64-33.6ZM131.59-35.9L131.59-35.9 131.59-34.45 125.49-35Q126.59-35 127.82-35.15 129.04-35.3 130.09-35.5 131.14-35.7 131.59-35.9ZM114.84-3.65L114.99-3.65 114.99 0 110.99 0 110.99-0.5Q110.99-0.5 111.32-0.5 111.64-0.5 111.64-0.5L111.64-0.5Q112.94-0.5 113.87-1.43 114.79-2.35 114.84-3.65L114.84-3.65ZM114.99-35L114.99-31.35 114.84-31.35Q114.84-32.65 113.89-33.58 112.94-34.5 111.64-34.5L111.64-34.5Q111.64-34.5 111.34-34.5 111.04-34.5 111.04-34.5L111.04-34.5 110.99-35 114.99-35ZM117.94 0L117.94-3.65 118.09-3.65Q118.14-2.35 119.07-1.43 119.99-0.5 121.29-0.5L121.29-0.5Q121.29-0.5 121.59-0.5 121.89-0.5 121.94-0.5L121.94-0.5 121.94 0 117.94 0ZM139.89-30L143.04-30 143.04 0 139.89 0 139.89-30ZM139.89-3.2L140.04-3.2 140.04 0 135.79 0 135.79-0.5Q135.79-0.5 136.14-0.5 136.49-0.5 136.49-0.5L136.49-0.5Q137.89-0.5 138.86-1.3 139.84-2.1 139.89-3.2L139.89-3.2ZM142.89 0L142.89-3.2 143.04-3.2Q143.09-2.1 144.06-1.3 145.04-0.5 146.44-0.5L146.44-0.5Q146.44-0.5 146.76-0.5 147.09-0.5 147.09-0.5L147.09-0.5 147.14 0 142.89 0ZM143.04-26.8L142.89-26.8 142.89-30 147.14-30 147.09-29.5Q147.09-29.5 146.76-29.5 146.44-29.5 146.44-29.5L146.44-29.5Q145.04-29.5 144.06-28.73 143.09-27.95 143.04-26.8L143.04-26.8ZM140.04-30L140.04-26.8 139.89-26.8Q139.84-27.95 138.86-28.73 137.89-29.5 136.49-29.5L136.49-29.5Q136.44-29.5 136.11-29.5 135.79-29.5 135.79-29.5L135.79-29.5 135.79-30 140.04-30ZM156.19-30L159.39-30 159.39 0 156.19 0 156.19-30ZM159.29-1.55L172.84-1.55 172.74 0 159.29 0 159.29-1.55ZM175.14-7.15L175.64-7.15 172.89 0 165.29 0 166.99-1.55Q169.49-1.55 171.01-2.27 172.54-3 173.49-4.28 174.44-5.55 175.14-7.15L175.14-7.15ZM156.19-3.2L156.29-3.2 156.94 0 152.59 0 152.59-0.5Q152.59-0.5 152.94-0.5 153.29-0.5 153.29-0.5L153.29-0.5Q154.54-0.5 155.34-1.3 156.14-2.1 156.19-3.2L156.19-3.2ZM159.39-26.8L159.24-26.8 159.24-30 162.94-30 162.94-29.5Q162.94-29.5 162.64-29.5 162.34-29.5 162.34-29.5L162.34-29.5Q161.14-29.5 160.26-28.73 159.39-27.95 159.39-26.8L159.39-26.8ZM156.29-30L156.29-26.8 156.19-26.8Q156.14-27.95 155.29-28.73 154.44-29.5 153.19-29.5L153.19-29.5Q153.19-29.5 152.89-29.5 152.59-29.5 152.59-29.5L152.59-29.5 152.59-30 156.29-30ZM197.33-2.45L211.53-30.7 211.98-27.45 200.28-4.4Q200.28-4.4 199.91-3.55 199.53-2.7 199.13-1.53 198.73-0.35 198.53 0.7L198.53 0.7 198.03 0.7 197.33-2.45ZM181.18-3.35L182.23-3.35 182.23 0 177.03 0 177.03-0.5Q177.03-0.5 177.41-0.5 177.78-0.5 177.78-0.5L177.78-0.5Q179.08-0.5 180.06-1.25 181.03-2 181.18-3.35L181.18-3.35ZM183.43-2.6L183.73-2.6Q183.68-1.85 184.08-1.18 184.48-0.5 185.58-0.45L185.58-0.45 186.28-0.45 186.28 0 183.43 0 183.43-2.6ZM180.73 0L185.08-30.7 185.58-30.7 186.58-27.75 183.48 0 180.73 0ZM184.63-25.2L185.58-30.7 199.18-4.55 198.03 0.7 184.63-25.2ZM211.53-30.7L211.98-30.7 216.48 0 212.68 0 209.43-25.15 211.53-30.7ZM214.98 0L214.98-3.35 215.98-3.35Q216.18-2 217.18-1.25 218.18-0.5 219.43-0.5L219.43-0.5Q219.43-0.5 219.81-0.5 220.18-0.5 220.18-0.5L220.18-0.5 220.18 0 214.98 0ZM212.33-2.6L212.33-2.6 212.68-2.6 212.68 0 209.78 0 209.78-0.45 210.53-0.45Q211.68-0.5 212.06-1.2 212.43-1.9 212.33-2.6ZM246.88-34.85L250.13-34.85 250.13 0 246.88 0 246.88-34.85ZM234.03-35.05L262.98-35.05 262.98-33.55 234.03-33.55 234.03-35.05ZM259.53-33.7L262.98-33.7 262.98-29.65 262.48-29.7 262.48-30.55Q262.48-31.8 261.6-32.65 260.73-33.5 259.53-33.55L259.53-33.55 259.53-33.7ZM262.98-35.95L262.98-35.95 262.98-34.5 256.88-35.05Q257.98-35.05 259.2-35.2 260.43-35.35 261.48-35.55 262.53-35.75 262.98-35.95ZM246.88-3.65L247.03-3.65 247.03 0 243.03 0 243.03-0.5Q243.03-0.5 243.35-0.5 243.68-0.5 243.68-0.5L243.68-0.5Q244.98-0.5 245.9-1.43 246.83-2.35 246.88-3.65L246.88-3.65ZM249.98 0L249.98-3.65 250.13-3.65Q250.18-2.35 251.1-1.43 252.03-0.5 253.33-0.5L253.33-0.5Q253.33-0.5 253.65-0.5 253.98-0.5 253.98-0.5L253.98-0.5 253.98 0 249.98 0ZM234.03-33.7L237.48-33.7 237.48-33.55Q236.23-33.5 235.38-32.65 234.53-31.8 234.53-30.55L234.53-30.55 234.53-29.7 234.03-29.65 234.03-33.7ZM234.03-34.5L234.03-35.95Q234.53-35.75 235.55-35.55 236.58-35.35 237.83-35.2 239.08-35.05 240.13-35.05L240.13-35.05 234.03-34.5ZM280.28-30.7L280.28-30.7Q283.78-30.7 286.85-29.58 289.93-28.45 292.25-26.35 294.58-24.25 295.88-21.38 297.18-18.5 297.18-15L297.18-15Q297.18-11.5 295.88-8.63 294.58-5.75 292.25-3.65 289.93-1.55 286.85-0.43 283.78 0.7 280.28 0.7L280.28 0.7Q276.78 0.7 273.73-0.43 270.68-1.55 268.35-3.65 266.03-5.75 264.73-8.63 263.43-11.5 263.43-15L263.43-15Q263.43-18.5 264.73-21.38 266.03-24.25 268.35-26.35 270.68-28.45 273.73-29.58 276.78-30.7 280.28-30.7ZM280.28-0.8L280.28-0.8Q283.98-0.8 286.98-2.6 289.98-4.4 291.73-7.6 293.48-10.8 293.48-15L293.48-15Q293.48-19.25 291.73-22.43 289.98-25.6 286.98-27.4 283.98-29.2 280.28-29.2L280.28-29.2Q276.63-29.2 273.63-27.4 270.63-25.6 268.88-22.43 267.13-19.25 267.13-15L267.13-15Q267.13-10.8 268.88-7.6 270.63-4.4 273.63-2.6 276.63-0.8 280.28-0.8ZM305.27-25.55L304.77-30.75 332.47-4.65 332.97 0.7 305.27-25.55ZM304.72-3.1L304.87-3.1 304.87 0 301.12 0 301.12-0.5Q301.12-0.5 301.55-0.5 301.97-0.5 301.97-0.5L301.97-0.5Q303.12-0.5 303.92-1.25 304.72-2 304.72-3.1L304.72-3.1ZM306.82-3.1L306.97-3.1Q306.97-2 307.8-1.25 308.62-0.5 309.72-0.5L309.72-0.5Q309.72-0.5 310.15-0.5 310.57-0.5 310.57-0.5L310.57-0.5 310.57 0 306.82 0 306.82-3.1ZM304.27-30.75L304.77-30.75 306.92-27.95 306.97 0 304.72 0 304.72-24.5Q304.72-27.05 304.5-28.9 304.27-30.75 304.27-30.75L304.27-30.75ZM330.77-30L332.97-30 332.97-5.7Q332.97-4.1 333.07-2.63 333.17-1.15 333.3-0.23 333.42 0.7 333.42 0.7L333.42 0.7 332.97 0.7 330.77-1.95 330.77-30ZM332.97-26.9L332.82-26.9 332.82-30 336.57-30 336.57-29.5Q336.57-29.5 336.15-29.5 335.72-29.5 335.72-29.5L335.72-29.5Q334.62-29.5 333.8-28.75 332.97-28 332.97-26.9L332.97-26.9ZM330.87-26.9L330.77-26.9Q330.72-28 329.92-28.75 329.12-29.5 327.97-29.5L327.97-29.5Q327.97-29.5 327.55-29.5 327.12-29.5 327.12-29.5L327.12-29.5 327.12-30 330.87-30 330.87-26.9Z" opacity="1" transform="matrix(1,0,0,1,0,0)" fill="#130912" class="wordmark-text-0" data-fill-palette-color="primary" id="text-0"></path></svg></g></svg></g><g transform="matrix(1,0,0,1,0,53.39070431885579)"><svg viewBox="0 0 395.52000000000004 30.1016548194484" height="30.1016548194484" width="395.52000000000004"><g transform="matrix(1,0,0,1,0,0)"><svg width="395.52000000000004" viewBox="2.9 -35.7 527.5 40.150000000000006" height="30.1016548194484" data-palette-color="#130912"><path d="M12.55-35.7L12.55-35.7Q13.35-35.7 14.28-35.6 15.2-35.5 16.07-35.33 16.95-35.15 17.68-34.98 18.4-34.8 18.8-34.6L18.8-34.6 18.8-29.05 18.35-29.05Q18.35-31.45 16.7-32.83 15.05-34.2 12.7-34.2L12.7-34.2Q9.95-34.2 8.25-32.48 6.55-30.75 6.55-28.45L6.55-28.45Q6.55-27.5 6.98-26.23 7.4-24.95 8.55-23.85L8.55-23.85 18.4-14.75Q19.9-13.35 20.4-11.75 20.9-10.15 20.9-8.65L20.9-8.65Q20.9-4.5 18.38-1.9 15.85 0.7 11.55 0.7L11.55 0.7Q10.35 0.7 8.72 0.45 7.1 0.2 5.58-0.43 4.05-1.05 3.05-2.05L3.05-2.05Q2.9-2.85 2.9-4.05 2.9-5.25 3.1-6.58 3.3-7.9 3.65-9L3.65-9 4.1-9Q3.85-6.45 4.75-4.55 5.65-2.65 7.38-1.68 9.1-0.7 11.3-0.8L11.3-0.8Q14.05-0.95 16.03-2.73 18-4.5 18-7.5L18-7.5Q18-8.95 17.5-10.13 17-11.3 16.05-12.15L16.05-12.15 6.45-21.05Q4.95-22.45 4.35-24.13 3.75-25.8 3.75-27.25L3.75-27.25Q3.75-29.35 4.75-31.3 5.75-33.25 7.73-34.48 9.7-35.7 12.55-35.7ZM15-35.2L18.8-35.2 18.8-34.15 15-34.15 15-35.2ZM30.1-30L33.3-30 33.3 0 30.1 0 30.1-30ZM33.2-1.55L46.75-1.55 46.65 0 33.2 0 33.2-1.55ZM33.2-15.75L44.4-15.75 44.4-14.25 33.2-14.25 33.2-15.75ZM33.2-30L46.7-30 46.7-28.45 33.2-28.45 33.2-30ZM49.05-7.15L49.55-7.15 46.8 0 39.2 0 40.9-1.55Q43.4-1.55 44.92-2.27 46.45-3 47.4-4.28 48.35-5.55 49.05-7.15L49.05-7.15ZM41.8-14.35L44.4-14.35 44.4-11.5 43.85-11.5 43.85-12.15Q43.85-13 43.35-13.63 42.85-14.25 41.8-14.25L41.8-14.25 41.8-14.35ZM43.85-18.5L44.4-18.5 44.4-15.65 41.8-15.65 41.8-15.75Q42.85-15.75 43.35-16.38 43.85-17 43.85-17.85L43.85-17.85 43.85-18.5ZM43.65-28.6L46.7-28.6 46.7-25.15 46.15-25.15 46.15-25.9Q46.15-26.95 45.47-27.7 44.8-28.45 43.65-28.45L43.65-28.45 43.65-28.6ZM46.7-30.8L46.7-30.8 46.7-29.5 41-30Q42.55-30 44.3-30.28 46.05-30.55 46.7-30.8ZM30.1-3.2L30.2-3.2 30.85 0 26.5 0 26.5-0.5Q26.5-0.5 26.85-0.5 27.2-0.5 27.2-0.5L27.2-0.5Q28.45-0.5 29.25-1.3 30.05-2.1 30.1-3.2L30.1-3.2ZM30.85-30L30.2-26.85 30.1-26.85Q30.05-28 29.25-28.75 28.45-29.5 27.2-29.5L27.2-29.5Q27.2-29.5 26.85-29.5 26.5-29.5 26.5-29.5L26.5-29.5 26.5-30 30.85-30ZM67-26.25L67.84-30.7 81.59-0.3 77.65-0.3 67-26.25ZM55.25-3.65L58.2-3.65Q57.65-2.15 58.34-1.33 59.05-0.5 59.95-0.5L59.95-0.5 60.34-0.5 60.34 0 50.8 0 50.8-0.5Q50.8-0.5 51-0.5 51.2-0.5 51.2-0.5L51.2-0.5Q52.25-0.5 53.34-1.23 54.45-1.95 55.25-3.65L55.25-3.65ZM67.4-30.7L67.84-30.7 68.2-27.25 56.75-0.15 53.59-0.15 65.45-25.55Q65.45-25.55 65.72-26.15 66-26.75 66.37-27.63 66.75-28.5 67.05-29.35 67.34-30.2 67.4-30.7L67.4-30.7ZM60.5-11.65L73.75-11.65 73.75-10.15 60.5-10.15 60.5-11.65ZM76.3-3.65L76.3-3.65 80.09-3.65Q80.84-1.95 81.95-1.23 83.05-0.5 84.05-0.5L84.05-0.5Q84.05-0.5 84.25-0.5 84.44-0.5 84.44-0.5L84.44-0.5 84.44 0 74.2 0 74.2-0.5 74.59-0.5Q75.45-0.5 76.15-1.33 76.84-2.15 76.3-3.65ZM93.04-30L93.04-30 99.49-30Q101.84-30 103.72-29.45 105.59-28.9 106.92-27.85 108.24-26.8 108.94-25.3 109.64-23.8 109.64-21.9L109.64-21.9Q109.64-19.8 108.64-18 107.64-16.2 105.87-15.05 104.09-13.9 101.84-13.65L101.84-13.65Q102.69-13.3 103.82-12.1 104.94-10.9 105.74-9.75L105.74-9.75Q105.74-9.75 106.39-8.88 107.04-8 108.07-6.73 109.09-5.45 110.09-4.3L110.09-4.3Q111.14-3.15 112.02-2.3 112.89-1.45 113.92-0.98 114.94-0.5 116.29-0.5L116.29-0.5 116.29 0 114.74 0Q111.99 0 110.22-0.7 108.44-1.4 107.34-2.43 106.24-3.45 105.44-4.4L105.44-4.4Q105.24-4.65 104.52-5.68 103.79-6.7 102.94-7.9 102.09-9.1 101.39-10.08 100.69-11.05 100.54-11.25L100.54-11.25Q99.54-12.55 98.24-13.58 96.94-14.6 95.49-14.6L95.49-14.6 95.49-15.1Q95.49-15.1 96.29-15.08 97.09-15.05 98.34-15.1L98.34-15.1Q99.74-15.15 101.14-15.33 102.54-15.5 103.77-16.4 104.99-17.3 105.69-19.4L105.69-19.4Q105.89-19.95 105.99-20.7 106.09-21.45 106.04-22.25L106.04-22.25Q105.99-23.65 105.52-24.75 105.04-25.85 104.17-26.65 103.29-27.45 102.09-27.9 100.89-28.35 99.39-28.4L99.39-28.4Q97.04-28.5 95.29-28.45 93.54-28.4 93.54-28.45L93.54-28.45Q93.54-28.5 93.42-28.88 93.29-29.25 93.17-29.63 93.04-30 93.04-30ZM90.44-30L93.64-30 93.64 0 90.44 0 90.44-30ZM90.49-3.2L90.59-3.2 91.19 0 86.94 0 86.94-0.5Q86.94-0.5 87.29-0.5 87.64-0.5 87.64-0.5L87.64-0.5Q88.84-0.5 89.64-1.3 90.44-2.1 90.49-3.2L90.49-3.2ZM91.19-30L90.59-26.85 90.49-26.85Q90.44-28 89.64-28.75 88.84-29.5 87.64-29.5L87.64-29.5Q87.64-29.5 87.29-29.5 86.94-29.5 86.94-29.5L86.94-29.5 86.94-30 91.19-30ZM92.89 0L93.49-3.2 93.64-3.2Q93.69-2.1 94.49-1.3 95.29-0.5 96.49-0.5L96.49-0.5Q96.49-0.5 96.82-0.5 97.14-0.5 97.14-0.5L97.14-0.5 97.19 0 92.89 0ZM146.64-12.6L147.09-12.6 146.54-5.75Q145.24-3.75 143.14-2.3 141.04-0.85 138.39-0.08 135.74 0.7 132.79 0.7L132.79 0.7Q127.74 0.65 124.01-1.25 120.29-3.15 118.29-6.65 116.29-10.15 116.29-15L116.29-15Q116.29-19.9 118.29-23.4 120.29-26.9 124.01-28.8 127.74-30.7 132.79-30.7L132.79-30.7Q135.89-30.7 139.04-29.9 142.19-29.1 144.49-27.65L144.49-27.65 145.59-20.6 145.14-20.6Q144.04-25.2 140.72-27.2 137.39-29.2 132.74-29.2L132.74-29.2Q128.79-29.2 125.91-27.48 123.04-25.75 121.46-22.58 119.89-19.4 119.89-15L119.89-15Q119.89-10.7 121.46-7.53 123.04-4.35 125.94-2.63 128.84-0.9 132.79-0.85L132.79-0.85Q136.54-0.85 139.56-2.08 142.59-3.3 144.49-5.9 146.39-8.5 146.64-12.6L146.64-12.6ZM176.94-30L180.14-30 180.14 0 176.94 0 176.94-30ZM155.29-30L158.49-30 158.49 0 155.29 0 155.29-30ZM157.94-15.55L177.44-15.55 177.44-14.05 157.94-14.05 157.94-15.55ZM155.29-3.2L155.44-3.2 155.44 0 151.79 0 151.79-0.5Q151.79-0.5 152.09-0.5 152.39-0.5 152.39-0.5L152.39-0.5Q153.59-0.5 154.41-1.3 155.24-2.1 155.29-3.2L155.29-3.2ZM158.34 0L158.34-3.2 158.49-3.2Q158.49-2.1 159.34-1.3 160.19-0.5 161.39-0.5L161.39-0.5Q161.39-0.5 161.69-0.5 161.99-0.5 161.99-0.5L161.99-0.5 161.99 0 158.34 0ZM158.49-26.8L158.34-26.8 158.34-30 161.99-30 161.99-29.5Q161.99-29.5 161.69-29.5 161.39-29.5 161.39-29.5L161.39-29.5Q160.19-29.5 159.34-28.73 158.49-27.95 158.49-26.8L158.49-26.8ZM155.44-30L155.44-26.8 155.29-26.8Q155.24-27.95 154.41-28.73 153.59-29.5 152.39-29.5L152.39-29.5Q152.39-29.5 152.09-29.5 151.79-29.5 151.79-29.5L151.79-29.5 151.79-30 155.44-30ZM176.94-3.2L177.09-3.2 177.09 0 173.44 0 173.44-0.5Q173.44-0.5 173.74-0.5 174.04-0.5 174.04-0.5L174.04-0.5Q175.24-0.5 176.06-1.3 176.89-2.1 176.94-3.2L176.94-3.2ZM179.99 0L179.99-3.2 180.14-3.2Q180.19-2.1 181.01-1.3 181.84-0.5 183.04-0.5L183.04-0.5Q183.04-0.5 183.34-0.5 183.64-0.5 183.64-0.5L183.64-0.5 183.64 0 179.99 0ZM180.14-26.8L179.99-26.8 179.99-30 183.64-30 183.64-29.5Q183.64-29.5 183.34-29.5 183.04-29.5 183.04-29.5L183.04-29.5Q181.84-29.5 181.01-28.73 180.19-27.95 180.14-26.8L180.14-26.8ZM177.09-30L177.09-26.8 176.94-26.8Q176.89-27.95 176.06-28.73 175.24-29.5 174.04-29.5L174.04-29.5Q174.04-29.5 173.74-29.5 173.44-29.5 173.44-29.5L173.44-29.5 173.44-30 177.09-30ZM189.09-3.25L189.09-3.25Q189.44-3.95 190.19-4.17 190.94-4.4 191.71-4.08 192.49-3.75 192.89-2.75L192.89-2.75Q193.49-1.35 193.36-0.08 193.24 1.2 192.59 2.2 191.94 3.2 190.91 3.8 189.89 4.4 188.69 4.45L188.69 4.45 188.59 4.05Q190.09 3.55 190.53 2.7 190.99 1.85 190.81 0.98 190.64 0.1 190.24-0.4L190.24-0.4Q189.94-0.8 189.56-1.2 189.19-1.6 189.01-2.13 188.84-2.65 189.09-3.25ZM220.63-35.7L220.63-35.7Q221.43-35.7 222.36-35.6 223.28-35.5 224.16-35.33 225.03-35.15 225.76-34.98 226.48-34.8 226.88-34.6L226.88-34.6 226.88-29.05 226.43-29.05Q226.43-31.45 224.78-32.83 223.13-34.2 220.78-34.2L220.78-34.2Q218.03-34.2 216.33-32.48 214.63-30.75 214.63-28.45L214.63-28.45Q214.63-27.5 215.06-26.23 215.48-24.95 216.63-23.85L216.63-23.85 226.48-14.75Q227.98-13.35 228.48-11.75 228.98-10.15 228.98-8.65L228.98-8.65Q228.98-4.5 226.46-1.9 223.93 0.7 219.63 0.7L219.63 0.7Q218.43 0.7 216.81 0.45 215.18 0.2 213.66-0.43 212.13-1.05 211.13-2.05L211.13-2.05Q210.98-2.85 210.98-4.05 210.98-5.25 211.18-6.58 211.38-7.9 211.73-9L211.73-9 212.18-9Q211.93-6.45 212.83-4.55 213.73-2.65 215.46-1.68 217.18-0.7 219.38-0.8L219.38-0.8Q222.13-0.95 224.11-2.73 226.08-4.5 226.08-7.5L226.08-7.5Q226.08-8.95 225.58-10.13 225.08-11.3 224.13-12.15L224.13-12.15 214.53-21.05Q213.03-22.45 212.43-24.13 211.83-25.8 211.83-27.25L211.83-27.25Q211.83-29.35 212.83-31.3 213.83-33.25 215.81-34.48 217.78-35.7 220.63-35.7ZM223.08-35.2L226.88-35.2 226.88-34.15 223.08-34.15 223.08-35.2ZM247.28-26.25L248.13-30.7 261.88-0.3 257.93-0.3 247.28-26.25ZM235.53-3.65L238.48-3.65Q237.93-2.15 238.63-1.33 239.33-0.5 240.23-0.5L240.23-0.5 240.63-0.5 240.63 0 231.08 0 231.08-0.5Q231.08-0.5 231.28-0.5 231.48-0.5 231.48-0.5L231.48-0.5Q232.53-0.5 233.63-1.23 234.73-1.95 235.53-3.65L235.53-3.65ZM247.68-30.7L248.13-30.7 248.48-27.25 237.03-0.15 233.88-0.15 245.73-25.55Q245.73-25.55 246-26.15 246.28-26.75 246.65-27.63 247.03-28.5 247.33-29.35 247.63-30.2 247.68-30.7L247.68-30.7ZM240.78-11.65L254.03-11.65 254.03-10.15 240.78-10.15 240.78-11.65ZM256.58-3.65L256.58-3.65 260.38-3.65Q261.13-1.95 262.23-1.23 263.33-0.5 264.33-0.5L264.33-0.5Q264.33-0.5 264.53-0.5 264.73-0.5 264.73-0.5L264.73-0.5 264.73 0 254.48 0 254.48-0.5 254.88-0.5Q255.73-0.5 256.43-1.33 257.13-2.15 256.58-3.65ZM277.43-3.75L276.58 0.7 262.83-29.7 266.78-29.7 277.43-3.75ZM277.03 0.7L276.58 0.7 276.23-2.75 287.68-29.85 290.83-29.85 278.98-4.45Q278.98-4.45 278.7-3.85 278.43-3.25 278.05-2.38 277.68-1.5 277.38-0.65 277.08 0.2 277.03 0.7L277.03 0.7ZM289.18-26.35L286.23-26.35Q286.78-27.85 286.08-28.68 285.38-29.5 284.48-29.5L284.48-29.5 284.13-29.5 284.13-30 293.63-30 293.63-29.5Q293.63-29.5 293.43-29.5 293.23-29.5 293.23-29.5L293.23-29.5Q292.18-29.5 291.08-28.78 289.98-28.05 289.18-26.35L289.18-26.35ZM268.13-26.35L268.13-26.35 264.33-26.35Q263.58-28.05 262.48-28.78 261.38-29.5 260.38-29.5L260.38-29.5Q260.38-29.5 260.18-29.5 259.98-29.5 259.98-29.5L259.98-29.5 259.98-30 270.23-30 270.23-29.5 269.83-29.5Q268.98-29.5 268.3-28.68 267.63-27.85 268.13-26.35ZM299.72-30L302.92-30 302.92 0 299.72 0 299.72-30ZM302.82-1.55L316.37-1.55 316.27 0 302.82 0 302.82-1.55ZM302.82-15.75L314.02-15.75 314.02-14.25 302.82-14.25 302.82-15.75ZM302.82-30L316.32-30 316.32-28.45 302.82-28.45 302.82-30ZM318.67-7.15L319.17-7.15 316.42 0 308.82 0 310.52-1.55Q313.02-1.55 314.55-2.27 316.07-3 317.02-4.28 317.97-5.55 318.67-7.15L318.67-7.15ZM311.42-14.35L314.02-14.35 314.02-11.5 313.47-11.5 313.47-12.15Q313.47-13 312.97-13.63 312.47-14.25 311.42-14.25L311.42-14.25 311.42-14.35ZM313.47-18.5L314.02-18.5 314.02-15.65 311.42-15.65 311.42-15.75Q312.47-15.75 312.97-16.38 313.47-17 313.47-17.85L313.47-17.85 313.47-18.5ZM313.27-28.6L316.32-28.6 316.32-25.15 315.77-25.15 315.77-25.9Q315.77-26.95 315.1-27.7 314.42-28.45 313.27-28.45L313.27-28.45 313.27-28.6ZM316.32-30.8L316.32-30.8 316.32-29.5 310.62-30Q312.17-30 313.92-30.28 315.67-30.55 316.32-30.8ZM299.72-3.2L299.82-3.2 300.47 0 296.12 0 296.12-0.5Q296.12-0.5 296.47-0.5 296.82-0.5 296.82-0.5L296.82-0.5Q298.07-0.5 298.87-1.3 299.67-2.1 299.72-3.2L299.72-3.2ZM300.47-30L299.82-26.85 299.72-26.85Q299.67-28 298.87-28.75 298.07-29.5 296.82-29.5L296.82-29.5Q296.82-29.5 296.47-29.5 296.12-29.5 296.12-29.5L296.12-29.5 296.12-30 300.47-30ZM323.42-3.25L323.42-3.25Q323.77-3.95 324.52-4.17 325.27-4.4 326.05-4.08 326.82-3.75 327.22-2.75L327.22-2.75Q327.82-1.35 327.69-0.08 327.57 1.2 326.92 2.2 326.27 3.2 325.25 3.8 324.22 4.4 323.02 4.45L323.02 4.45 322.92 4.05Q324.42 3.55 324.87 2.7 325.32 1.85 325.15 0.98 324.97 0.1 324.57-0.4L324.57-0.4Q324.27-0.8 323.9-1.2 323.52-1.6 323.35-2.13 323.17-2.65 323.42-3.25ZM354.97-35.7L354.97-35.7Q355.77-35.7 356.69-35.6 357.62-35.5 358.49-35.33 359.37-35.15 360.09-34.98 360.81-34.8 361.22-34.6L361.22-34.6 361.22-29.05 360.77-29.05Q360.77-31.45 359.12-32.83 357.47-34.2 355.12-34.2L355.12-34.2Q352.37-34.2 350.67-32.48 348.97-30.75 348.97-28.45L348.97-28.45Q348.97-27.5 349.39-26.23 349.81-24.95 350.97-23.85L350.97-23.85 360.81-14.75Q362.31-13.35 362.81-11.75 363.31-10.15 363.31-8.65L363.31-8.65Q363.31-4.5 360.79-1.9 358.27 0.7 353.97 0.7L353.97 0.7Q352.77 0.7 351.14 0.45 349.52 0.2 347.99-0.43 346.47-1.05 345.47-2.05L345.47-2.05Q345.31-2.85 345.31-4.05 345.31-5.25 345.52-6.58 345.72-7.9 346.06-9L346.06-9 346.52-9Q346.27-6.45 347.17-4.55 348.06-2.65 349.79-1.68 351.52-0.7 353.72-0.8L353.72-0.8Q356.47-0.95 358.44-2.73 360.42-4.5 360.42-7.5L360.42-7.5Q360.42-8.95 359.92-10.13 359.42-11.3 358.47-12.15L358.47-12.15 348.87-21.05Q347.37-22.45 346.77-24.13 346.17-25.8 346.17-27.25L346.17-27.25Q346.17-29.35 347.17-31.3 348.17-33.25 350.14-34.48 352.12-35.7 354.97-35.7ZM357.42-35.2L361.22-35.2 361.22-34.15 357.42-34.15 357.42-35.2ZM379.01-29.85L382.26-29.85 382.26 0 379.01 0 379.01-29.85ZM366.91-30.05L394.36-30.05 394.36-28.55 366.91-28.55 366.91-30.05ZM391.31-28.65L394.36-28.65 394.36-25.2 393.81-25.2 393.81-26Q393.81-27.05 393.14-27.78 392.46-28.5 391.31-28.55L391.31-28.55 391.31-28.65ZM394.36-30.85L394.36-30.85 394.36-29.55 388.76-30.05Q389.76-30.05 390.89-30.18 392.01-30.3 392.96-30.5 393.91-30.7 394.36-30.85ZM379.01-3.2L379.11-3.2 379.11 0 375.46 0 375.46-0.5Q375.51-0.5 375.79-0.5 376.06-0.5 376.06-0.5L376.06-0.5Q377.26-0.5 378.11-1.3 378.96-2.1 379.01-3.2L379.01-3.2ZM382.11 0L382.11-3.2 382.26-3.2Q382.31-2.1 383.16-1.3 384.01-0.5 385.21-0.5L385.21-0.5Q385.21-0.5 385.49-0.5 385.76-0.5 385.76-0.5L385.76-0.5 385.76 0 382.11 0ZM366.91-28.65L369.96-28.65 369.96-28.55Q368.81-28.5 368.14-27.78 367.46-27.05 367.46-26L367.46-26 367.46-25.2 366.91-25.2 366.91-28.65ZM366.91-29.55L366.91-30.85Q367.36-30.7 368.29-30.5 369.21-30.3 370.36-30.18 371.51-30.05 372.51-30.05L372.51-30.05 366.91-29.55ZM403.91-30L403.91-30 410.36-30Q412.71-30 414.58-29.45 416.46-28.9 417.79-27.85 419.11-26.8 419.81-25.3 420.51-23.8 420.51-21.9L420.51-21.9Q420.51-19.8 419.51-18 418.51-16.2 416.74-15.05 414.96-13.9 412.71-13.65L412.71-13.65Q413.56-13.3 414.69-12.1 415.81-10.9 416.61-9.75L416.61-9.75Q416.61-9.75 417.26-8.88 417.91-8 418.94-6.73 419.96-5.45 420.96-4.3L420.96-4.3Q422.01-3.15 422.88-2.3 423.76-1.45 424.79-0.98 425.81-0.5 427.16-0.5L427.16-0.5 427.16 0 425.61 0Q422.86 0 421.08-0.7 419.31-1.4 418.21-2.43 417.11-3.45 416.31-4.4L416.31-4.4Q416.11-4.65 415.38-5.68 414.66-6.7 413.81-7.9 412.96-9.1 412.26-10.08 411.56-11.05 411.41-11.25L411.41-11.25Q410.41-12.55 409.11-13.58 407.81-14.6 406.36-14.6L406.36-14.6 406.36-15.1Q406.36-15.1 407.16-15.08 407.96-15.05 409.21-15.1L409.21-15.1Q410.61-15.15 412.01-15.33 413.41-15.5 414.63-16.4 415.86-17.3 416.56-19.4L416.56-19.4Q416.76-19.95 416.86-20.7 416.96-21.45 416.91-22.25L416.91-22.25Q416.86-23.65 416.38-24.75 415.91-25.85 415.04-26.65 414.16-27.45 412.96-27.9 411.76-28.35 410.26-28.4L410.26-28.4Q407.91-28.5 406.16-28.45 404.41-28.4 404.41-28.45L404.41-28.45Q404.41-28.5 404.29-28.88 404.16-29.25 404.04-29.63 403.91-30 403.91-30ZM401.31-30L404.51-30 404.51 0 401.31 0 401.31-30ZM401.36-3.2L401.46-3.2 402.06 0 397.81 0 397.81-0.5Q397.81-0.5 398.16-0.5 398.51-0.5 398.51-0.5L398.51-0.5Q399.71-0.5 400.51-1.3 401.31-2.1 401.36-3.2L401.36-3.2ZM402.06-30L401.46-26.85 401.36-26.85Q401.31-28 400.51-28.75 399.71-29.5 398.51-29.5L398.51-29.5Q398.51-29.5 398.16-29.5 397.81-29.5 397.81-29.5L397.81-29.5 397.81-30 402.06-30ZM403.76 0L404.36-3.2 404.51-3.2Q404.56-2.1 405.36-1.3 406.16-0.5 407.36-0.5L407.36-0.5Q407.36-0.5 407.69-0.5 408.01-0.5 408.01-0.5L408.01-0.5 408.06 0 403.76 0ZM432.76-30L435.96-30 435.96 0 432.76 0 432.76-30ZM435.86-1.55L449.41-1.55 449.31 0 435.86 0 435.86-1.55ZM435.86-15.75L447.06-15.75 447.06-14.25 435.86-14.25 435.86-15.75ZM435.86-30L449.36-30 449.36-28.45 435.86-28.45 435.86-30ZM451.71-7.15L452.21-7.15 449.46 0 441.86 0 443.56-1.55Q446.06-1.55 447.58-2.27 449.11-3 450.06-4.28 451.01-5.55 451.71-7.15L451.71-7.15ZM444.46-14.35L447.06-14.35 447.06-11.5 446.51-11.5 446.51-12.15Q446.51-13 446.01-13.63 445.51-14.25 444.46-14.25L444.46-14.25 444.46-14.35ZM446.51-18.5L447.06-18.5 447.06-15.65 444.46-15.65 444.46-15.75Q445.51-15.75 446.01-16.38 446.51-17 446.51-17.85L446.51-17.85 446.51-18.5ZM446.31-28.6L449.36-28.6 449.36-25.15 448.81-25.15 448.81-25.9Q448.81-26.95 448.13-27.7 447.46-28.45 446.31-28.45L446.31-28.45 446.31-28.6ZM449.36-30.8L449.36-30.8 449.36-29.5 443.66-30Q445.21-30 446.96-30.28 448.71-30.55 449.36-30.8ZM432.76-3.2L432.86-3.2 433.51 0 429.16 0 429.16-0.5Q429.16-0.5 429.51-0.5 429.86-0.5 429.86-0.5L429.86-0.5Q431.11-0.5 431.91-1.3 432.71-2.1 432.76-3.2L432.76-3.2ZM433.51-30L432.86-26.85 432.76-26.85Q432.71-28 431.91-28.75 431.11-29.5 429.86-29.5L429.86-29.5Q429.86-29.5 429.51-29.5 429.16-29.5 429.16-29.5L429.16-29.5 429.16-30 433.51-30ZM469.66-26.25L470.51-30.7 484.26-0.3 480.31-0.3 469.66-26.25ZM457.91-3.65L460.86-3.65Q460.31-2.15 461.01-1.33 461.71-0.5 462.61-0.5L462.61-0.5 463.01-0.5 463.01 0 453.46 0 453.46-0.5Q453.46-0.5 453.66-0.5 453.86-0.5 453.86-0.5L453.86-0.5Q454.91-0.5 456.01-1.23 457.11-1.95 457.91-3.65L457.91-3.65ZM470.06-30.7L470.51-30.7 470.86-27.25 459.41-0.15 456.26-0.15 468.11-25.55Q468.11-25.55 468.38-26.15 468.66-26.75 469.03-27.63 469.41-28.5 469.71-29.35 470.01-30.2 470.06-30.7L470.06-30.7ZM463.16-11.65L476.41-11.65 476.41-10.15 463.16-10.15 463.16-11.65ZM478.96-3.65L478.96-3.65 482.76-3.65Q483.51-1.95 484.61-1.23 485.71-0.5 486.71-0.5L486.71-0.5Q486.71-0.5 486.91-0.5 487.11-0.5 487.11-0.5L487.11-0.5 487.11 0 476.86 0 476.86-0.5 477.26-0.5Q478.11-0.5 478.81-1.33 479.51-2.15 478.96-3.65ZM507.55-2.45L521.75-30.7 522.2-27.45 510.5-4.4Q510.5-4.4 510.13-3.55 509.75-2.7 509.35-1.53 508.95-0.35 508.75 0.7L508.75 0.7 508.25 0.7 507.55-2.45ZM491.4-3.35L492.45-3.35 492.45 0 487.25 0 487.25-0.5Q487.25-0.5 487.63-0.5 488-0.5 488-0.5L488-0.5Q489.3-0.5 490.28-1.25 491.25-2 491.4-3.35L491.4-3.35ZM493.65-2.6L493.95-2.6Q493.9-1.85 494.3-1.18 494.7-0.5 495.8-0.45L495.8-0.45 496.5-0.45 496.5 0 493.65 0 493.65-2.6ZM490.95 0L495.3-30.7 495.8-30.7 496.8-27.75 493.7 0 490.95 0ZM494.85-25.2L495.8-30.7 509.4-4.55 508.25 0.7 494.85-25.2ZM521.75-30.7L522.2-30.7 526.7 0 522.9 0 519.65-25.15 521.75-30.7ZM525.2 0L525.2-3.35 526.2-3.35Q526.4-2 527.4-1.25 528.4-0.5 529.65-0.5L529.65-0.5Q529.65-0.5 530.03-0.5 530.4-0.5 530.4-0.5L530.4-0.5 530.4 0 525.2 0ZM522.55-2.6L522.55-2.6 522.9-2.6 522.9 0 520 0 520-0.45 520.75-0.45Q521.9-0.5 522.28-1.2 522.65-1.9 522.55-2.6Z" opacity="1" transform="matrix(1,0,0,1,0,0)" fill="#130912" class="slogan-text-1" data-fill-palette-color="secondary" id="text-1"></path></svg></g></svg></g></svg></g></svg></g><g transform="matrix(1,0,0,1,126.05534259264407,0)"><svg viewBox="0 0 145.38691481471184 145.38691481471184" height="145.38691481471184" width="145.38691481471184"><g><svg xmlns="http://www.w3.org/2000/svg" xmlns:xlink="http://www.w3.org/1999/xlink" version="1.1" x="0" y="0" viewBox="14 14 72 72" enable-background="new 0 0 100 100" xml:space="preserve" height="145.38691481471184" width="145.38691481471184" class="icon-icon-0" data-fill-palette-color="accent" id="icon-0"><path d="M14 14V86H23V77H32V86H68V77H77V86H86V14zM32 68H23V59H32zM32 50H23V41H32zM32 32H23V23H32zM77 68H68V59H77zM77 50H68V41H77zM77 32H68V23H77z" fill="#ff6f20" data-fill-palette-color="accent"></path></svg></g></svg></g><g></g></svg></g></svg></g><defs></defs></svg><rect width="388.1264776574692" height="247.2" fill="none" stroke="none" visibility="hidden"></rect></g></svg></g></svg>